<svg xmlns="http://www.w3.org/2000/svg" xmlns:xlink="http://www.w3.org/1999/xlink" viewBox="0 0 154.64 92.83"><defs><style>.cls-1{opacity:0.9;}.cls-2{opacity:0.15;}.cls-14,.cls-3{fill:#fff;}.cls-4{fill:none;stroke:#0b1922;stroke-miterlimit:10;stroke-width:0.46px;}.cls-5{isolation:isolate;}.cls-6{fill:#060f13;}.cls-7{fill:#060e12;}.cls-8{fill:#0a181f;}.cls-9{fill:#071015;}.cls-10{fill:#fa4925;}.cls-11{opacity:0.54;}.cls-12{fill:url(#linear-gradient);}.cls-13{fill:url(#linear-gradient-2);}.cls-14{opacity:0.11;}.cls-15{opacity:0.5;fill:url(#linear-gradient-3);}.cls-16{opacity:0.68;}.cls-17{fill:#fffdee;}.cls-18{fill:#e9a72c;}</style><linearGradient id="linear-gradient" x1="-269.78" y1="357.46" x2="-269.28" y2="357.46" gradientTransform="translate(48.77 -292.84)" gradientUnits="userSpaceOnUse"><stop offset="0" stop-color="#fff"/><stop offset="0.15" stop-color="#e5e7f0"/><stop offset="0.47" stop-color="#a1aacb"/><stop offset="0.94" stop-color="#354990"/><stop offset="1" stop-color="#273d88"/></linearGradient><linearGradient id="linear-gradient-2" x1="-269.78" y1="357.46" x2="-269.28" y2="357.46" gradientTransform="translate(45.05 -289.2)" xlink:href="#linear-gradient"/><linearGradient id="linear-gradient-3" x1="-89.06" y1="31.85" x2="-88.56" y2="31.85" gradientUnits="userSpaceOnUse"><stop offset="0" stop-color="#0b1922" stop-opacity="0.44"/><stop offset="0.18" stop-color="#14212a" stop-opacity="0.44"/><stop offset="0.37" stop-color="#2d3941" stop-opacity="0.45"/><stop offset="0.55" stop-color="#586268" stop-opacity="0.45"/><stop offset="0.74" stop-color="#949a9e" stop-opacity="0.46"/><stop offset="0.93" stop-color="#e1e3e4" stop-opacity="0.48"/><stop offset="1" stop-color="#fff" stop-opacity="0.48"/></linearGradient></defs><g id="Layer_2" data-name="Layer 2"><g id="Layer_1-2" data-name="Layer 1"><g class="cls-1"><g class="cls-2"><line class="cls-3" x1="23.08" y1="21.84" x2="85.55" y2="21.84"/><line class="cls-4" x1="23.08" y1="21.84" x2="85.55" y2="21.84"/></g><g class="cls-5"><rect class="cls-6" x="56.43" y="49.11" width="73.71" height="15.99"/><rect class="cls-6" x="44.17" y="65.11" width="73.71" height="16"/><polygon class="cls-7" points="117.88 65.11 44.17 65.11 56.43 65.11 130.14 65.11 117.88 65.11"/><rect class="cls-6" x="44.17" y="33.11" width="73.71" height="16"/><polygon class="cls-7" points="105.62 81.11 31.91 81.11 44.17 81.11 117.88 81.11 105.62 81.11"/><polygon class="cls-7" points="93.36 65.11 19.66 65.11 31.91 65.11 105.62 65.11 93.36 65.11"/><rect class="cls-6" x="0.07" y="30.94" width="73.71" height="61.88"/><path class="cls-8" d="M114.21,0l40.43,30.94V92.83H73.78V30.94Zm15.93,65.11v-16H117.88v-16H105.62v16H93.36v16h12.26v16h12.26v-16h12.26"/><polygon class="cls-9" points="73.78 30.94 0.07 30.94 40.51 0 114.21 0 73.78 30.94"/></g><path class="cls-10" d="M24.32,43.69H43a2.48,2.48,0,0,1,2.48,2.48V92.83a0,0,0,0,1,0,0H21.84a0,0,0,0,1,0,0V46.17A2.48,2.48,0,0,1,24.32,43.69Z"/><g class="cls-11"><rect class="cls-3" x="23.66" y="65.53" width="5.46" height="1.82" rx="0.46" transform="translate(93.38 41.49) rotate(91.24)"/><path class="cls-12" d="M26,63.71h1.37a0,0,0,0,1,0,0v1.82a0,0,0,0,1,0,0H26a.46.46,0,0,1-.46-.46v-.91A.46.46,0,0,1,26,63.71Z" transform="translate(91.61 39.59) rotate(91.24)"/><path class="cls-13" d="M25.44,67.35h1.37a.46.46,0,0,1,.46.46v.91a.46.46,0,0,1-.46.46H25.44a0,0,0,0,1,0,0V67.35a0,0,0,0,1,0,0Z" transform="translate(95.16 43.39) rotate(91.24)"/></g><path class="cls-14" d="M21.78,67.35H67.41a1.76,1.76,0,0,1,1.76,1.76v.06a0,0,0,0,1,0,0H20a0,0,0,0,1,0,0V69.1A1.76,1.76,0,0,1,21.78,67.35Z" transform="translate(112.85 23.66) rotate(90)"/><path class="cls-14" d="M23.66,91h20a1.82,1.82,0,0,1,1.82,1.82v0a0,0,0,0,1,0,0H21.84a0,0,0,0,1,0,0v0A1.82,1.82,0,0,1,23.66,91Z" transform="translate(67.34 183.84) rotate(180)"/><rect class="cls-15" y="30.94" width="73.71" height="1.82"/></g><g class="cls-16"><rect class="cls-17" x="105.4" y="33.72" width="11.86" height="47.39"/><rect class="cls-17" x="93.28" y="49.37" width="36.77" height="15.8"/></g><polygon class="cls-18" points="40.5 0 0.07 30.94 73.72 31.11 114.21 0 40.5 0"/></g></g></svg>