<svg xmlns="http://www.w3.org/2000/svg" xmlns:xlink="http://www.w3.org/1999/xlink" viewBox="0 0 161.89 97.17"><defs><style>.cls-1{opacity:0.9;}.cls-2{opacity:0.15;}.cls-15,.cls-3{fill:#1d5aa3;}.cls-4{fill:none;stroke:#fff;stroke-miterlimit:10;stroke-width:0.48px;}.cls-5{isolation:isolate;}.cls-6{fill:#969696;}.cls-7{fill:#8e8e8e;}.cls-8{fill:#f0f0f0;}.cls-9{fill:#a1a1a1;}.cls-10{fill:#212121;}.cls-11{opacity:0.54;}.cls-12{fill:#d9e8ff;}.cls-13{fill:url(#linear-gradient);}.cls-14{fill:url(#linear-gradient-2);}.cls-15{opacity:0.11;}.cls-16{opacity:0.5;fill:url(#linear-gradient-3);}.cls-17{opacity:0.68;}.cls-18{fill:#fff;}</style><linearGradient id="linear-gradient" x1="1238.85" y1="-1175.74" x2="1239.37" y2="-1175.74" gradientTransform="translate(-1470.2 1243.38)" gradientUnits="userSpaceOnUse"><stop offset="0" stop-color="#d9e8ff"/><stop offset="1" stop-color="#d9e8ff"/></linearGradient><linearGradient id="linear-gradient-2" x1="1238.85" y1="-1175.74" x2="1239.37" y2="-1175.74" gradientTransform="translate(-1474.1 1247.19)" xlink:href="#linear-gradient"/><linearGradient id="linear-gradient-3" x1="-93.23" y1="33.34" x2="-92.71" y2="33.34" gradientUnits="userSpaceOnUse"><stop offset="0" stop-color="#fff" stop-opacity="0.44"/><stop offset="0.2" stop-color="#f5f5f5" stop-opacity="0.44"/><stop offset="0.4" stop-color="#d9d9d9" stop-opacity="0.45"/><stop offset="0.61" stop-color="#a9a9a9" stop-opacity="0.46"/><stop offset="0.82" stop-color="#676767" stop-opacity="0.47"/><stop offset="1" stop-color="#212121" stop-opacity="0.48"/></linearGradient></defs><g id="Layer_2" data-name="Layer 2"><g id="Layer_1-2" data-name="Layer 1"><g class="cls-1"><g class="cls-2"><line class="cls-3" x1="24.16" y1="22.86" x2="89.55" y2="22.86"/><line class="cls-4" x1="24.16" y1="22.86" x2="89.55" y2="22.86"/></g><g class="cls-5"><rect class="cls-6" x="59.07" y="51.41" width="77.16" height="16.75"/><rect class="cls-6" x="46.24" y="68.16" width="77.16" height="16.75"/><polygon class="cls-7" points="123.4 68.16 46.24 68.16 59.07 68.16 136.23 68.16 123.4 68.16"/><rect class="cls-6" x="46.24" y="34.66" width="77.16" height="16.75"/><polygon class="cls-7" points="110.57 84.91 33.41 84.91 46.24 84.91 123.4 84.91 110.57 84.91"/><polygon class="cls-7" points="97.74 68.16 20.58 68.16 33.41 68.16 110.57 68.16 97.74 68.16"/><rect class="cls-6" x="0.07" y="32.39" width="77.16" height="64.78"/><path class="cls-8" d="M119.55,0l42.34,32.39V97.17H77.23V32.39Zm16.68,68.16V51.41H123.4V34.66H110.57V51.41H97.74V68.16h12.83V84.91H123.4V68.16h12.83"/><polygon class="cls-9" points="77.23 32.39 0.07 32.39 42.4 0 119.55 0 77.23 32.39"/></g><path class="cls-10" d="M25.46,45.73H45a2.6,2.6,0,0,1,2.6,2.6V97.17a0,0,0,0,1,0,0H22.86a0,0,0,0,1,0,0V48.32A2.6,2.6,0,0,1,25.46,45.73Z"/><g class="cls-11"><rect class="cls-12" x="24.77" y="68.59" width="5.72" height="1.91" rx="0.48" transform="matrix(-0.02, 1, -1, -0.02, 97.75, 43.43)"/><path class="cls-13" d="M27.19,66.69h1.43a0,0,0,0,1,0,0v1.91a0,0,0,0,1,0,0H27.19a.48.48,0,0,1-.48-.48v-1A.48.48,0,0,1,27.19,66.69Z" transform="translate(95.89 41.44) rotate(91.24)"/><path class="cls-14" d="M26.63,70.5h1.43a.48.48,0,0,1,.48.48v1a.48.48,0,0,1-.48.48H26.63a0,0,0,0,1,0,0V70.5a0,0,0,0,1,0,0Z" transform="translate(99.62 45.42) rotate(91.24)"/></g><path class="cls-15" d="M22.8,70.5H70.56a1.84,1.84,0,0,1,1.84,1.84v.07a0,0,0,0,1,0,0H21a0,0,0,0,1,0,0v-.07A1.84,1.84,0,0,1,22.8,70.5Z" transform="translate(118.13 24.77) rotate(90)"/><path class="cls-15" d="M24.77,95.27h21a1.91,1.91,0,0,1,1.91,1.91v0a0,0,0,0,1,0,0H22.86a0,0,0,0,1,0,0v0a1.91,1.91,0,0,1,1.91-1.91Z" transform="translate(70.5 192.44) rotate(180)"/><rect class="cls-16" y="32.39" width="77.17" height="1.91"/></g><g class="cls-17"><rect class="cls-3" x="110.33" y="35.29" width="12.41" height="49.61"/><rect class="cls-3" x="97.65" y="51.68" width="38.49" height="16.54"/></g><polygon class="cls-18" points="42.4 0 0.07 32.39 77.17 32.56 119.55 0 42.4 0"/></g></g></svg>