<svg xmlns="http://www.w3.org/2000/svg" xmlns:xlink="http://www.w3.org/1999/xlink" viewBox="0 0 150.68 90.44"><defs><style>.cls-1{opacity:0.9;}.cls-2{opacity:0.15;}.cls-14,.cls-3{fill:#fff;}.cls-4{fill:none;stroke:#f64847;stroke-miterlimit:10;stroke-width:0.44px;}.cls-5{isolation:isolate;}.cls-6{fill:#912a2a;}.cls-7{fill:#892827;}.cls-8{fill:#e84443;}.cls-9{fill:#9c2e2d;}.cls-10{fill:#170103;}.cls-11{opacity:0.54;}.cls-12{fill:url(#linear-gradient);}.cls-13{fill:url(#linear-gradient-2);}.cls-14{opacity:0.11;}.cls-15{opacity:0.5;fill:url(#linear-gradient-3);}.cls-16{opacity:0.68;}.cls-17{fill:#fefefe;}.cls-18{fill:#f64847;}</style><linearGradient id="linear-gradient" x1="52.38" y1="759.25" x2="52.86" y2="759.25" gradientTransform="translate(-267.71 -696.29)" gradientUnits="userSpaceOnUse"><stop offset="0" stop-color="#fff"/><stop offset="1" stop-color="#fff"/></linearGradient><linearGradient id="linear-gradient-2" x1="52.38" y1="759.25" x2="52.86" y2="759.25" gradientTransform="translate(-271.34 -692.74)" xlink:href="#linear-gradient"/><linearGradient id="linear-gradient-3" x1="-86.78" y1="31.03" x2="-86.29" y2="31.03" gradientUnits="userSpaceOnUse"><stop offset="0" stop-color="#f64847" stop-opacity="0.44"/><stop offset="0.64" stop-color="#f64847" stop-opacity="0.46"/><stop offset="1" stop-color="#f64847" stop-opacity="0.48"/></linearGradient></defs><g id="Layer_2" data-name="Layer 2"><g id="Layer_1-2" data-name="Layer 1"><g class="cls-1"><g class="cls-2"><line class="cls-3" x1="22.49" y1="21.28" x2="83.35" y2="21.28"/><line class="cls-4" x1="22.49" y1="21.28" x2="83.35" y2="21.28"/></g><g class="cls-5"><rect class="cls-6" x="54.98" y="47.85" width="71.82" height="15.59"/><rect class="cls-6" x="43.04" y="63.44" width="71.82" height="15.59"/><polygon class="cls-7" points="114.86 63.44 43.04 63.44 54.98 63.44 126.8 63.44 114.86 63.44"/><rect class="cls-6" x="43.04" y="32.26" width="71.82" height="15.59"/><polygon class="cls-7" points="102.91 79.02 31.1 79.02 43.04 79.02 114.86 79.02 102.91 79.02"/><polygon class="cls-7" points="90.97 63.44 19.16 63.44 31.1 63.44 102.91 63.44 90.97 63.44"/><rect class="cls-6" x="0.07" y="30.14" width="71.82" height="60.3"/><path class="cls-8" d="M111.28,0l39.4,30.14v60.3H71.88V30.14ZM126.8,63.44V47.85h-12V32.26H102.91V47.85H91V63.44h11.94V79h11.94V63.44h12"/><polygon class="cls-9" points="71.88 30.14 0.07 30.14 39.46 0 111.28 0 71.88 30.14"/></g><path class="cls-10" d="M23.7,42.56H41.92A2.42,2.42,0,0,1,44.34,45V90.44a0,0,0,0,1,0,0H21.28a0,0,0,0,1,0,0V45A2.42,2.42,0,0,1,23.7,42.56Z"/><g class="cls-11"><rect class="cls-3" x="23.05" y="63.84" width="5.32" height="1.77" rx="0.44" transform="translate(90.99 40.42) rotate(91.24)"/><path class="cls-12" d="M25.31,62.07h1.33a0,0,0,0,1,0,0v1.77a0,0,0,0,1,0,0H25.31a.44.44,0,0,1-.44-.44v-.89a.44.44,0,0,1,.44-.44Z" transform="translate(89.25 38.58) rotate(91.24)"/><path class="cls-13" d="M24.79,65.62h1.33a.44.44,0,0,1,.44.44v.89a.44.44,0,0,1-.44.44H24.79a0,0,0,0,1,0,0V65.62a0,0,0,0,1,0,0Z" transform="translate(92.72 42.27) rotate(91.24)"/></g><path class="cls-14" d="M21.22,65.62H65.68a1.71,1.71,0,0,1,1.71,1.71v.06a0,0,0,0,1,0,0H19.51a0,0,0,0,1,0,0v-.06A1.71,1.71,0,0,1,21.22,65.62Z" transform="translate(109.95 23.05) rotate(90)"/><path class="cls-14" d="M23.05,88.67H42.56a1.77,1.77,0,0,1,1.77,1.77v0a0,0,0,0,1,0,0H21.28a0,0,0,0,1,0,0v0a1.77,1.77,0,0,1,1.77-1.77Z" transform="translate(65.62 179.11) rotate(180)"/><rect class="cls-15" y="30.15" width="71.82" height="1.77"/></g><g class="cls-16"><rect class="cls-17" x="102.69" y="32.85" width="11.55" height="46.18"/><rect class="cls-17" x="90.89" y="48.1" width="35.82" height="15.4"/></g><polygon class="cls-18" points="39.46 0 0.07 30.15 71.82 30.31 111.28 0 39.46 0"/></g></g></svg>