<?xml version="1.0" encoding="utf-8"?>
<svg viewBox="0 0 162.35 97.2" xmlns="http://www.w3.org/2000/svg" xmlns:bx="https://boxy-svg.com">
  <defs>
    <style>.cls-1{opacity:0.9;}.cls-2{opacity:0.15;}.cls-14,.cls-3{fill:#e4b4eb;}.cls-4{fill:none;stroke:#d55836;stroke-miterlimit:10;stroke-width:0.48px;}.cls-5{isolation:isolate;}.cls-6{fill:#010802;}.cls-7{fill:#010702;}.cls-8{fill:#020c04;}.cls-9{fill:#010803;}.cls-10{fill:#0d744b;}.cls-11{opacity:0.54;}.cls-12{fill:url(#linear-gradient);}.cls-13{fill:url(#linear-gradient-2);}.cls-14{opacity:0.11;}.cls-15{opacity:0.5;fill:url(#linear-gradient-3);}.cls-16{fill:#020e04;}.cls-17{opacity:0.2;}.cls-18{fill:url(#linear-gradient-4);}.cls-19{fill:#dc9739;}.cls-20{opacity:0.68;}.cls-21{fill:#fff;}</style>
    <linearGradient id="gradient-2" bx:pinned="true">
      <stop offset="0.109" style="stop-color: rgb(160, 116, 116);"/>
      <stop offset="0.942" style="stop-color: rgb(255, 252, 252);"/>
    </linearGradient>
  </defs>
  <g id="Layer_1-2" data-name="Layer 1" style="" transform="matrix(0.949153, 0, 0, 0.949891, 1.691718, 2.733666)">
    <g class="cls-1">
      <g class="cls-2"/>
      <g class="cls-5">
        <rect class="cls-6" x="0.25" y="32.4" width="77.26" height="64.8" style="fill: rgba(228, 180, 235, 0); stroke: rgb(0, 0, 0); stroke-width: 5px; stroke-linejoin: round; stroke-linecap: round;"/>
        <path class="cls-8" d="M119.92,0l42.43,32.4V97.2H77.5V32.4Zm16.72,68.18V51.42H123.78V34.67H110.92V51.42H98.06V68.18h12.86V84.92h12.86V68.18h12.86" style="fill: rgba(228, 180, 235, 0); stroke: rgb(0, 0, 0); stroke-width: 5px; stroke-linejoin: round; stroke-linecap: round;"/>
        <polygon class="cls-9" points="76.951 31.052 2.425 30.397 43.078 -0.275 117.112 -0.275 76.951 30.997" style="fill: rgba(228, 180, 235, 0); stroke: rgb(0, 0, 0); stroke-width: 5px; stroke-linejoin: round; stroke-linecap: round;"/>
      </g>
      <path class="cls-10" d="M25.65,45.74H45.28a2.6,2.6,0,0,1,2.6,2.6V97.2a0,0,0,0,1,0,0H23.05a0,0,0,0,1,0,0V48.34A2.6,2.6,0,0,1,25.65,45.74Z" style="fill: rgba(228, 180, 235, 0); stroke: rgb(0, 0, 0); stroke-width: 4px;"/>
      <g class="cls-11">
        <rect class="cls-3" x="24.83" y="68.61" width="5.72" height="1.91" rx="0.48" transform="translate(97.84 43.39) rotate(91.25)" style="fill: rgba(228, 180, 235, 0); stroke: rgb(0, 0, 0); stroke-width: 0px;"/>
        <path class="cls-12" d="M27.26,66.7h1.43a0,0,0,0,1,0,0v1.91a0,0,0,0,1,0,0H27.26a.48.48,0,0,1-.48-.48v-1A.48.48,0,0,1,27.26,66.7Z" transform="translate(95.98 41.4) rotate(91.25)" style="fill: rgba(228, 180, 235, 0); stroke: rgb(0, 0, 0); stroke-width: 0px;"/>
        <path class="cls-13" d="M26.7,70.51h1.43a.48.48,0,0,1,.48.48v1a.48.48,0,0,1-.48.48H26.7a0,0,0,0,1,0,0V70.51a0,0,0,0,1,0,0Z" transform="translate(99.7 45.38) rotate(91.25)" style="fill: rgba(228, 180, 235, 0); stroke: rgb(0, 0, 0); stroke-width: 0px;"/>
      </g>
      <path class="cls-14" d="M22.9,70.51H70.68a1.84,1.84,0,0,1,1.84,1.84v.07a0,0,0,0,1,0,0H21.06a0,0,0,0,1,0,0v-.07A1.84,1.84,0,0,1,22.9,70.51Z" transform="translate(118.26 24.68) rotate(90)" style="fill: rgba(228, 180, 235, 0); stroke: rgb(0, 0, 0); stroke-width: 4px;"/>
      <path class="cls-14" d="M24.8,95.29H45.86a1.89,1.89,0,0,1,1.89,1.89v0a0,0,0,0,1,0,0H22.92a0,0,0,0,1,0,0v0a1.89,1.89,0,0,1,1.89-1.89Z" transform="translate(70.66 192.49) rotate(180)" style="fill: rgba(228, 180, 235, 0); stroke: rgb(0, 0, 0); stroke-width: 2px;"/>
      <rect class="cls-15" y="32.4" width="77.059" height="1.91" style="fill: rgba(228, 180, 235, 0); stroke: rgb(0, 0, 0); stroke-width: 2px;" x="0.281"/>
    </g>
    <g class="cls-17">
      <rect class="cls-18" x="111.01" y="34.67" width="12.57" height="50.26" style="fill: rgba(220, 152, 57, 0); stroke-width: 2px;"/>
      <rect class="cls-19" x="98.15" y="51.27" width="38.99" height="16.76" style="fill: rgba(220, 152, 57, 0); stroke-width: 2px;"/>
    </g>
  </g>
</svg>