<svg xmlns="http://www.w3.org/2000/svg" xmlns:xlink="http://www.w3.org/1999/xlink" viewBox="0 0 162.35 97.2"><defs><style>.cls-1{opacity:0.9;}.cls-2{opacity:0.15;}.cls-14,.cls-3{fill:#e4b4eb;}.cls-4{fill:none;stroke:#d55836;stroke-miterlimit:10;stroke-width:0.48px;}.cls-5{isolation:isolate;}.cls-6{fill:#010802;}.cls-7{fill:#010702;}.cls-8{fill:#020c04;}.cls-9{fill:#010803;}.cls-10{fill:#0d744b;}.cls-11{opacity:0.54;}.cls-12{fill:url(#linear-gradient);}.cls-13{fill:url(#linear-gradient-2);}.cls-14{opacity:0.11;}.cls-15{opacity:0.5;fill:url(#linear-gradient-3);}.cls-16{fill:#020e04;}.cls-17{opacity:0.2;}.cls-18{fill:url(#linear-gradient-4);}.cls-19{fill:#dc9739;}.cls-20{opacity:0.68;}.cls-21{fill:#fff;}</style><linearGradient id="linear-gradient" x1="210.33" y1="-145.38" x2="210.85" y2="-145.38" gradientTransform="translate(-441.69 213.06)" gradientUnits="userSpaceOnUse"><stop offset="0" stop-color="#cc5cbd"/><stop offset="0.28" stop-color="#d376b7"/><stop offset="0.86" stop-color="#e6baa8"/><stop offset="1" stop-color="#ebcaa4"/></linearGradient><linearGradient id="linear-gradient-2" x1="210.33" y1="-145.38" x2="210.85" y2="-145.38" gradientTransform="translate(-445.59 216.87)" xlink:href="#linear-gradient"/><linearGradient id="linear-gradient-3" x1="-93.45" y1="33.35" x2="-92.92" y2="33.35" gradientUnits="userSpaceOnUse"><stop offset="0" stop-color="#d55836" stop-opacity="0.44"/><stop offset="0.24" stop-color="#d4583e" stop-opacity="0.44"/><stop offset="0.49" stop-color="#d35957" stop-opacity="0.45"/><stop offset="0.74" stop-color="#d05a81" stop-opacity="0.46"/><stop offset="0.99" stop-color="#cc5cbb" stop-opacity="0.48"/><stop offset="1" stop-color="#cc5cbd" stop-opacity="0.48"/></linearGradient><linearGradient id="linear-gradient-4" x1="123.58" y1="59.8" x2="111.01" y2="59.8" gradientUnits="userSpaceOnUse"><stop offset="0" stop-color="#dc9739"/><stop offset="0.18" stop-color="#db953d" stop-opacity="0.98"/><stop offset="0.36" stop-color="#da8f4b" stop-opacity="0.93"/><stop offset="0.54" stop-color="#d78561" stop-opacity="0.84"/><stop offset="0.73" stop-color="#d37781" stop-opacity="0.72"/><stop offset="0.92" stop-color="#ce65a8" stop-opacity="0.56"/><stop offset="1" stop-color="#cc5cbd" stop-opacity="0.48"/></linearGradient></defs><g id="Layer_2" data-name="Layer 2"><g id="Layer_1-2" data-name="Layer 1"><g class="cls-1"><g class="cls-2"><line class="cls-3" x1="24.22" y1="22.87" x2="89.76" y2="22.87"/><line class="cls-4" x1="24.22" y1="22.87" x2="89.76" y2="22.87"/></g><g class="cls-5"><rect class="cls-6" x="59.38" y="51.42" width="77.26" height="16.76"/><rect class="cls-6" x="46.52" y="68.18" width="77.26" height="16.75"/><polygon class="cls-7" points="123.78 68.17 46.52 68.17 59.38 68.17 136.64 68.17 123.78 68.17"/><rect class="cls-6" x="46.52" y="34.67" width="77.26" height="16.75"/><polygon class="cls-7" points="110.92 84.92 33.66 84.92 46.52 84.92 123.78 84.92 110.92 84.92"/><polygon class="cls-7" points="98.06 68.17 20.8 68.17 33.66 68.17 110.92 68.17 98.06 68.17"/><rect class="cls-6" x="0.25" y="32.4" width="77.26" height="64.8"/><path class="cls-8" d="M119.92,0l42.43,32.4V97.2H77.5V32.4Zm16.72,68.18V51.42H123.78V34.67H110.92V51.42H98.06V68.18h12.86V84.92h12.86V68.18h12.86"/><polygon class="cls-9" points="77.5 32.4 0.25 32.4 42.67 0 119.92 0 77.5 32.4"/></g><path class="cls-10" d="M25.65,45.74H45.28a2.6,2.6,0,0,1,2.6,2.6V97.2a0,0,0,0,1,0,0H23.05a0,0,0,0,1,0,0V48.34A2.6,2.6,0,0,1,25.65,45.74Z"/><g class="cls-11"><rect class="cls-3" x="24.83" y="68.61" width="5.72" height="1.91" rx="0.48" transform="translate(97.84 43.39) rotate(91.25)"/><path class="cls-12" d="M27.26,66.7h1.43a0,0,0,0,1,0,0v1.91a0,0,0,0,1,0,0H27.26a.48.48,0,0,1-.48-.48v-1A.48.48,0,0,1,27.26,66.7Z" transform="translate(95.98 41.4) rotate(91.25)"/><path class="cls-13" d="M26.7,70.51h1.43a.48.48,0,0,1,.48.48v1a.48.48,0,0,1-.48.48H26.7a0,0,0,0,1,0,0V70.51a0,0,0,0,1,0,0Z" transform="translate(99.7 45.38) rotate(91.25)"/></g><path class="cls-14" d="M22.9,70.51H70.68a1.84,1.84,0,0,1,1.84,1.84v.07a0,0,0,0,1,0,0H21.06a0,0,0,0,1,0,0v-.07A1.84,1.84,0,0,1,22.9,70.51Z" transform="translate(118.26 24.68) rotate(90)"/><path class="cls-14" d="M24.8,95.29H45.86a1.89,1.89,0,0,1,1.89,1.89v0a0,0,0,0,1,0,0H22.92a0,0,0,0,1,0,0v0a1.89,1.89,0,0,1,1.89-1.89Z" transform="translate(70.66 192.49) rotate(180)"/><rect class="cls-15" y="32.4" width="77.34" height="1.91"/></g><polygon class="cls-16" points="42.12 0.11 0.15 32.57 77.34 32.57 119.77 0.11 42.12 0.11"/><g class="cls-17"><rect class="cls-18" x="111.01" y="34.67" width="12.57" height="50.26"/><rect class="cls-19" x="98.15" y="51.27" width="38.99" height="16.76"/></g><g class="cls-20"><rect class="cls-21" x="111.01" y="34.67" width="12.57" height="50.26"/><rect class="cls-21" x="98.15" y="51.27" width="38.99" height="16.76"/></g></g></g></svg>