<svg xmlns="http://www.w3.org/2000/svg" xmlns:xlink="http://www.w3.org/1999/xlink" viewBox="0 0 150.68 90.44"><defs><style>.cls-1{opacity:0.9;}.cls-2{opacity:0.15;}.cls-14,.cls-3{fill:#fff;}.cls-4{fill:none;stroke:#111112;stroke-miterlimit:10;stroke-width:0.44px;}.cls-5{isolation:isolate;}.cls-6{fill:#0a0a0b;}.cls-7{fill:#09090a;}.cls-8{fill:#101011;}.cls-9{fill:#0b0b0b;}.cls-10{fill:#1580eb;}.cls-11{opacity:0.54;}.cls-12{fill:url(#linear-gradient);}.cls-13{fill:url(#linear-gradient-2);}.cls-14{opacity:0.11;}.cls-15{opacity:0.5;fill:url(#linear-gradient-3);}.cls-16{opacity:0.68;}.cls-17{fill:#bedcf9;}.cls-18{fill:#111112;}</style><linearGradient id="linear-gradient" x1="-120.99" y1="1274.73" x2="-120.5" y2="1274.73" gradientTransform="translate(-94.35 -1211.77)" gradientUnits="userSpaceOnUse"><stop offset="0" stop-color="#fff"/><stop offset="1" stop-color="#fff"/></linearGradient><linearGradient id="linear-gradient-2" x1="-120.99" y1="1274.73" x2="-120.5" y2="1274.73" gradientTransform="translate(-97.97 -1208.22)" xlink:href="#linear-gradient"/><linearGradient id="linear-gradient-3" x1="-86.78" y1="31.03" x2="-86.29" y2="31.03" gradientUnits="userSpaceOnUse"><stop offset="0" stop-color="#111112" stop-opacity="0.44"/><stop offset="1" stop-color="#111112" stop-opacity="0.48"/></linearGradient></defs><g id="Layer_2" data-name="Layer 2"><g id="Layer_1-2" data-name="Layer 1"><g class="cls-1"><g class="cls-2"><line class="cls-3" x1="22.49" y1="21.28" x2="83.35" y2="21.28"/><line class="cls-4" x1="22.49" y1="21.28" x2="83.35" y2="21.28"/></g><g class="cls-5"><rect class="cls-6" x="54.98" y="47.84" width="71.82" height="15.59"/><rect class="cls-6" x="43.04" y="63.43" width="71.82" height="15.6"/><polygon class="cls-7" points="114.85 63.43 43.04 63.43 54.98 63.43 126.79 63.43 114.85 63.43"/><rect class="cls-6" x="43.04" y="32.26" width="71.82" height="15.59"/><polygon class="cls-7" points="102.91 79.03 31.1 79.03 43.04 79.03 114.85 79.03 102.91 79.03"/><polygon class="cls-7" points="90.97 63.43 19.16 63.43 31.1 63.43 102.91 63.43 90.97 63.43"/><rect class="cls-6" x="0.06" y="30.15" width="71.82" height="60.29"/><path class="cls-8" d="M111.27,0l39.41,30.15V90.44H71.88V30.15Zm15.52,63.43V47.84H114.85V32.26H102.91V47.84H91V63.43h11.94V79h11.94V63.43h11.94"/><polygon class="cls-9" points="71.88 30.15 0.07 30.15 39.46 0 111.28 0 71.88 30.15"/></g><path class="cls-10" d="M23.7,42.56H41.92A2.42,2.42,0,0,1,44.34,45V90.44a0,0,0,0,1,0,0H21.28a0,0,0,0,1,0,0V45A2.42,2.42,0,0,1,23.7,42.56Z"/><g class="cls-11"><rect class="cls-3" x="23.05" y="63.84" width="5.32" height="1.77" rx="0.44" transform="translate(90.99 40.43) rotate(91.24)"/><path class="cls-12" d="M25.31,62.07h1.33a0,0,0,0,1,0,0v1.77a0,0,0,0,1,0,0H25.31a.44.44,0,0,1-.44-.44v-.89A.44.44,0,0,1,25.31,62.07Z" transform="translate(89.25 38.58) rotate(91.24)"/><path class="cls-13" d="M24.79,65.62h1.33a.44.44,0,0,1,.44.44v.89a.44.44,0,0,1-.44.44H24.79a0,0,0,0,1,0,0V65.62A0,0,0,0,1,24.79,65.62Z" transform="translate(92.72 42.27) rotate(91.24)"/></g><path class="cls-14" d="M21.22,65.62H65.68a1.71,1.71,0,0,1,1.71,1.71v.06a0,0,0,0,1,0,0H19.51a0,0,0,0,1,0,0v-.06A1.71,1.71,0,0,1,21.22,65.62Z" transform="translate(109.95 23.05) rotate(90)"/><path class="cls-14" d="M23.05,88.67H42.56a1.77,1.77,0,0,1,1.77,1.77v0a0,0,0,0,1,0,0H21.28a0,0,0,0,1,0,0v0A1.77,1.77,0,0,1,23.05,88.67Z" transform="translate(65.62 179.11) rotate(180)"/><rect class="cls-15" y="30.15" width="71.82" height="1.77"/></g><g class="cls-16"><rect class="cls-17" x="102.69" y="32.85" width="11.55" height="46.18"/><rect class="cls-17" x="90.89" y="48.1" width="35.82" height="15.4"/></g><polygon class="cls-18" points="39.46 0 0.07 30.15 71.82 30.31 111.28 0 39.46 0"/></g></g></svg>