<svg xmlns="http://www.w3.org/2000/svg" xmlns:xlink="http://www.w3.org/1999/xlink" viewBox="0 0 161 96.39"><defs><style>.cls-1{opacity:0.9;}.cls-2{opacity:0.15;}.cls-14,.cls-3{fill:#f9ddd2;}.cls-4{fill:none;stroke:#e9b7ab;stroke-miterlimit:10;stroke-width:0.47px;}.cls-5{isolation:isolate;}.cls-6{fill:#968e8c;}.cls-7{fill:#8e8684;}.cls-8{fill:#f0e4e0;}.cls-9{fill:#a19997;}.cls-10{fill:#281e20;}.cls-11{opacity:0.54;}.cls-12{fill:url(#linear-gradient);}.cls-13{fill:url(#linear-gradient-2);}.cls-14{opacity:0.11;}.cls-15{opacity:0.5;fill:url(#linear-gradient-3);}.cls-16{fill:#edc4ba;}.cls-17{opacity:0.2;}.cls-18{fill:url(#linear-gradient-4);}.cls-19{opacity:0.68;}.cls-20{fill:#f9744e;}</style><linearGradient id="linear-gradient" x1="738.74" y1="-667.07" x2="739.26" y2="-667.07" gradientTransform="translate(-968.15 734.21)" gradientUnits="userSpaceOnUse"><stop offset="0" stop-color="#fff2ee"/><stop offset="0.15" stop-color="#e5d8d5"/><stop offset="0.48" stop-color="#a19594"/><stop offset="0.95" stop-color="#352b2c"/><stop offset="1" stop-color="#281e20"/></linearGradient><linearGradient id="linear-gradient-2" x1="738.74" y1="-667.07" x2="739.26" y2="-667.07" gradientTransform="translate(-972.02 737.99)" xlink:href="#linear-gradient"/><linearGradient id="linear-gradient-3" x1="-92.67" y1="33.08" x2="-92.15" y2="33.08" gradientUnits="userSpaceOnUse"><stop offset="0" stop-color="#e9b7ab" stop-opacity="0.44"/><stop offset="0.34" stop-color="#e5b3b2" stop-opacity="0.44"/><stop offset="0.7" stop-color="#daa6c6" stop-opacity="0.46"/><stop offset="1" stop-color="#ca95e2" stop-opacity="0.48"/></linearGradient><linearGradient id="linear-gradient-4" x1="122.55" y1="59.3" x2="110.08" y2="59.3" gradientUnits="userSpaceOnUse"><stop offset="0" stop-color="#f9ddd2"/><stop offset="0.16" stop-color="#f8dbd2" stop-opacity="0.99"/><stop offset="0.32" stop-color="#f4d5d4" stop-opacity="0.94"/><stop offset="0.49" stop-color="#edcbd6" stop-opacity="0.87"/><stop offset="0.65" stop-color="#e5bed9" stop-opacity="0.77"/><stop offset="0.82" stop-color="#d9acdd" stop-opacity="0.65"/><stop offset="0.99" stop-color="#cb97e2" stop-opacity="0.49"/><stop offset="1" stop-color="#ca95e2" stop-opacity="0.48"/></linearGradient></defs><g id="Layer_2" data-name="Layer 2"><g id="Layer_1-2" data-name="Layer 1"><g class="cls-1"><g class="cls-2"><line class="cls-3" x1="24.02" y1="22.68" x2="89.01" y2="22.68"/><line class="cls-4" x1="24.02" y1="22.68" x2="89.01" y2="22.68"/></g><g class="cls-5"><rect class="cls-6" x="58.89" y="50.99" width="76.62" height="16.61"/><rect class="cls-6" x="46.13" y="67.61" width="76.62" height="16.61"/><polygon class="cls-7" points="122.75 67.61 46.13 67.61 58.89 67.61 135.5 67.61 122.75 67.61"/><rect class="cls-6" x="46.13" y="34.38" width="76.62" height="16.61"/><polygon class="cls-7" points="110 84.22 33.38 84.22 46.13 84.22 122.75 84.22 110 84.22"/><polygon class="cls-7" points="97.24 67.61 20.63 67.61 33.38 67.61 110 67.61 97.24 67.61"/><rect class="cls-6" x="0.24" y="32.13" width="76.62" height="64.26"/><path class="cls-8" d="M118.93,0,161,32.13V96.39H76.85V32.13ZM135.5,67.61V51H122.75V34.38H110V51H97.24V67.61H110V84.22h12.75V67.61H135.5"/><polygon class="cls-9" points="76.85 32.13 0.24 32.13 42.31 0 118.93 0 76.85 32.13"/></g><path class="cls-10" d="M25.44,45.36H44.9a2.58,2.58,0,0,1,2.58,2.58V96.39a0,0,0,0,1,0,0H22.86a0,0,0,0,1,0,0V47.94A2.58,2.58,0,0,1,25.44,45.36Z"/><g class="cls-11"><rect class="cls-3" x="24.63" y="68.04" width="5.67" height="1.89" rx="0.47" transform="translate(97.03 43.03) rotate(91.25)"/><path class="cls-12" d="M27,66.15h1.42a0,0,0,0,1,0,0V68a0,0,0,0,1,0,0H27a.47.47,0,0,1-.47-.47v-.95a.47.47,0,0,1,.47-.47Z" transform="translate(95.18 41.06) rotate(91.25)"/><path class="cls-13" d="M26.48,69.93h1.42a.47.47,0,0,1,.47.47v.95a.47.47,0,0,1-.47.47H26.48a0,0,0,0,1,0,0V69.93a0,0,0,0,1,0,0Z" transform="translate(98.88 45.01) rotate(91.25)"/></g><path class="cls-14" d="M22.71,69.93H70.09a1.83,1.83,0,0,1,1.83,1.83v.07a0,0,0,0,1,0,0h-51a0,0,0,0,1,0,0v-.07A1.83,1.83,0,0,1,22.71,69.93Z" transform="translate(117.28 24.48) rotate(90)"/><path class="cls-14" d="M24.6,94.5H45.48a1.87,1.87,0,0,1,1.87,1.87v0a0,0,0,0,1,0,0H22.73a0,0,0,0,1,0,0v0A1.87,1.87,0,0,1,24.6,94.5Z" transform="translate(70.07 190.9) rotate(180)"/><rect class="cls-15" y="32.13" width="76.7" height="1.89"/></g><polygon class="cls-16" points="41.77 0.12 0.15 32.31 76.7 32.31 118.77 0.12 41.77 0.12"/><g class="cls-17"><rect class="cls-18" x="110.08" y="34.38" width="12.47" height="49.84"/><rect class="cls-3" x="97.34" y="50.85" width="38.67" height="16.62"/></g><g class="cls-19"><rect class="cls-20" x="110.08" y="34.38" width="12.47" height="49.84"/><rect class="cls-20" x="97.34" y="50.85" width="38.67" height="16.62"/></g></g></g></svg>