<svg xmlns="http://www.w3.org/2000/svg" xmlns:xlink="http://www.w3.org/1999/xlink" viewBox="0 0 136.93 82.2"><defs><style>.cls-1{opacity:0.9;}.cls-2{opacity:0.15;}.cls-14,.cls-3{fill:#fff;}.cls-4{fill:none;stroke:#6c81ff;stroke-miterlimit:10;stroke-width:0.4px;}.cls-5{isolation:isolate;}.cls-6{fill:#404c96;}.cls-7{fill:#3c488e;}.cls-8{fill:#6679f0;}.cls-9{fill:#4452a1;}.cls-10{fill:#25304e;}.cls-11{opacity:0.54;}.cls-12{fill:url(#linear-gradient);}.cls-13{fill:url(#linear-gradient-2);}.cls-14{opacity:0.11;}.cls-15{opacity:0.5;fill:url(#linear-gradient-3);}.cls-16{opacity:0.68;}.cls-17{fill:#f4f6fe;}.cls-18{fill:#6c81ff;}</style><linearGradient id="linear-gradient" x1="-740.43" y1="917.18" x2="-739.99" y2="917.18" gradientTransform="translate(544.73 -859.97)" gradientUnits="userSpaceOnUse"><stop offset="0" stop-color="#fff"/><stop offset="1" stop-color="#fff"/></linearGradient><linearGradient id="linear-gradient-2" x1="-740.43" y1="917.18" x2="-739.99" y2="917.18" gradientTransform="translate(541.44 -856.75)" xlink:href="#linear-gradient"/><linearGradient id="linear-gradient-3" x1="-78.86" y1="28.21" x2="-78.42" y2="28.21" gradientUnits="userSpaceOnUse"><stop offset="0" stop-color="#6c81ff" stop-opacity="0.44"/><stop offset="0.63" stop-color="#6c81ff" stop-opacity="0.46"/><stop offset="1" stop-color="#6c81ff" stop-opacity="0.48"/></linearGradient></defs><g id="Layer_2" data-name="Layer 2"><g id="Layer_1-2" data-name="Layer 1"><g class="cls-1"><g class="cls-2"><line class="cls-3" x1="20.44" y1="19.34" x2="75.75" y2="19.34"/><line class="cls-4" x1="20.44" y1="19.34" x2="75.75" y2="19.34"/></g><g class="cls-5"><rect class="cls-6" x="49.97" y="43.49" width="65.27" height="14.17"/><rect class="cls-6" x="39.12" y="57.65" width="65.27" height="14.17"/><polygon class="cls-7" points="104.38 57.65 39.12 57.65 49.97 57.65 115.23 57.65 104.38 57.65"/><rect class="cls-6" x="39.12" y="29.31" width="65.27" height="14.17"/><polygon class="cls-7" points="93.53 71.82 28.26 71.82 39.12 71.82 104.38 71.82 93.53 71.82"/><polygon class="cls-7" points="82.67 57.65 17.41 57.65 28.26 57.65 93.53 57.65 82.67 57.65"/><rect class="cls-6" x="0.06" y="27.4" width="65.27" height="54.8"/><path class="cls-8" d="M101.13,0l35.8,27.4V82.2H65.33V27.4Zm14.11,57.65V43.49H104.38V29.31H93.52V43.49H82.67V57.65H93.52V71.82h10.86V57.65h10.86"/><polygon class="cls-9" points="65.33 27.4 0.06 27.4 35.86 0 101.13 0 65.33 27.4"/></g><path class="cls-10" d="M21.54,38.68H38.1a2.2,2.2,0,0,1,2.2,2.2V82.2a0,0,0,0,1,0,0h-21a0,0,0,0,1,0,0V40.88A2.2,2.2,0,0,1,21.54,38.68Z"/><g class="cls-11"><rect class="cls-3" x="20.95" y="58.02" width="4.84" height="1.61" rx="0.4" transform="translate(82.69 36.74) rotate(91.24)"/><path class="cls-12" d="M23,56.41h1.21a0,0,0,0,1,0,0V58a0,0,0,0,1,0,0H23a.4.4,0,0,1-.4-.4v-.81A.4.4,0,0,1,23,56.41Z" transform="translate(81.12 35.06) rotate(91.24)"/><path class="cls-13" d="M22.53,59.63h1.21a.4.4,0,0,1,.4.4v.81a.4.4,0,0,1-.4.4H22.53a0,0,0,0,1,0,0V59.63a0,0,0,0,1,0,0Z" transform="translate(84.27 38.42) rotate(91.24)"/></g><path class="cls-14" d="M19.28,59.63H59.69a1.56,1.56,0,0,1,1.56,1.56v.06a0,0,0,0,1,0,0H17.73a0,0,0,0,1,0,0v-.06A1.56,1.56,0,0,1,19.28,59.63Z" transform="translate(99.93 20.95) rotate(90)"/><path class="cls-14" d="M21,80.59H38.68a1.61,1.61,0,0,1,1.61,1.61v0a0,0,0,0,1,0,0h-21a0,0,0,0,1,0,0v0A1.61,1.61,0,0,1,21,80.59Z" transform="translate(59.63 162.78) rotate(180)"/><rect class="cls-15" y="27.4" width="65.27" height="1.61"/></g><g class="cls-16"><rect class="cls-17" x="93.33" y="29.85" width="10.5" height="41.97"/><rect class="cls-17" x="82.6" y="43.71" width="32.56" height="13.99"/></g><polygon class="cls-18" points="35.86 0 0.06 27.4 65.27 27.55 101.13 0 35.86 0"/></g></g></svg>