<svg xmlns="http://www.w3.org/2000/svg" viewBox="0 0 149.4 149.48"><defs><style>.cls-1{fill:#fa0303;}.cls-2{fill:#494949;}.cls-3{fill:#bdbdbd;}.cls-4{fill:#cbcbcb;}.cls-5{fill:#8c8c8c;}</style></defs><g id="Layer_2" data-name="Layer 2"><g id="Layer_1-2" data-name="Layer 1"><path class="cls-1" d="M79.1,149.48V112a35.52,35.52,0,0,0,29.71-30.58h40.42c-3.25,31.77-26.69,61-59.07,66.81A85.27,85.27,0,0,1,79.1,149.48Z"/><path class="cls-2" d="M38.39,81.43A35.49,35.49,0,0,0,69.1,112.14V149.3c-24-1.89-46.07-14.45-59-36.14A72.07,72.07,0,0,1,0,81.43Z"/><path class="cls-3" d="M98.75,70.43a1.77,1.77,0,0,0,0,.23l-.06-.23Z"/><path class="cls-3" d="M79.1,99.42h0Z"/><path class="cls-4" d="M108.51,70.43A35.53,35.53,0,0,0,79.1,41.85V0A67.41,67.41,0,0,1,99.17,4.14c28.54,10.71,48.09,36,50.23,66.29Z"/><path class="cls-5" d="M18.09,25.77c12.35-15,31.49-24.1,51-25.65v41.6A35.5,35.5,0,0,0,38.69,70.43H0A79.52,79.52,0,0,1,18.09,25.77Z"/></g></g></svg>